<svg width="130" height="158" viewBox="0 0 130 158" fill="none" xmlns="http://www.w3.org/2000/svg">
<path d="M81.6514 7.66882C89.7544 -4.78497 106.421 -8.30138 118.869 -0.198364L126.126 4.52625C126.362 4.68162 126.592 4.84841 126.828 5.00378C137.417 11.7831 144.755 27.2641 149.376 40.6444C151.787 46.2785 151.725 47.9764 151.725 47.9764L151.719 47.9823C151.722 47.992 151.803 48.2093 151.943 48.5917C153.25 52.1713 159.954 70.5477 162.29 76.6307C162.155 76.3065 161.97 75.8865 161.729 75.3925L161.706 75.3456C161.999 75.9541 162.271 76.5777 162.524 77.2147C162.454 77.0349 162.377 76.8361 162.298 76.6239C162.435 76.9546 162.52 77.1899 162.56 77.3007C162.569 77.3258 162.58 77.3507 162.59 77.3759L187.273 140.522C193.056 155.316 185.74 172.024 170.946 177.807C156.153 183.589 139.445 176.272 133.662 161.478L104.541 86.9794L101.886 91.0585L102.295 91.1962L87.2168 114.354C97.1034 117.324 100.821 117.658 102.059 117.641C102.243 117.623 102.427 117.606 102.611 117.589C89.2713 127.614 76.9616 138.848 65.9062 151.089C60.7498 156.798 55.7139 162.846 48.877 166.696C39.2375 172.123 26.5249 172.307 16.7012 167.185C6.87752 162.064 0.305359 151.848 0.0117188 141.288C-0.212726 133.289 2.80863 126.434 7.76367 121.013L38.207 75.2899L44.3477 65.1893C44.3532 65.1782 44.3591 65.1725 44.3594 65.1669C44.7392 64.4417 45.1538 63.7274 45.6084 63.0253L81.6514 7.66882ZM156.634 68.0106C156.595 67.9691 156.555 67.9281 156.516 67.8866C156.555 67.9277 156.594 67.9693 156.634 68.0106ZM147.339 61.5009C150.703 62.9758 153.787 65.0903 156.392 67.7567C154.138 65.4157 151.172 63.1226 147.339 61.5009Z" fill="#034660" fill-opacity="0.35"/>
</svg>
