<svg width="1631" height="675" viewBox="0 0 1631 675" fill="none" xmlns="http://www.w3.org/2000/svg">
<rect width="1631" height="675" fill="white"/>
<path d="M922.833 245.829C922.833 234.671 919.533 223.764 913.342 214.485C907.155 205.21 898.36 197.98 888.07 193.707C877.776 189.438 866.452 188.322 855.526 190.499C844.604 192.676 834.567 198.048 826.693 205.938C818.816 213.829 813.453 223.879 811.28 234.82C809.106 245.765 810.221 257.106 814.482 267.416C818.747 277.726 825.963 286.537 835.228 292.736C844.489 298.935 855.377 302.241 866.516 302.241C881.452 302.241 895.777 296.297 906.34 285.719C916.903 275.14 922.833 260.791 922.833 245.829ZM866.516 274.033C860.945 274.033 855.501 272.38 850.872 269.282C846.24 266.181 842.632 261.775 840.501 256.62C838.367 251.469 837.811 245.795 838.896 240.324C839.985 234.854 842.666 229.826 846.603 225.881C850.544 221.936 855.561 219.252 861.021 218.161C866.487 217.075 872.148 217.633 877.293 219.768C882.438 221.902 886.836 225.519 889.931 230.159C893.023 234.794 894.675 240.247 894.675 245.829C894.675 253.31 891.708 260.484 886.426 265.772C881.149 271.063 873.984 274.033 866.516 274.033ZM883.096 454.947L938.674 332.336C956.397 317.472 969.121 297.507 975.128 275.153C981.136 252.794 980.133 229.132 972.255 207.366C964.377 185.599 950.001 166.789 931.087 153.488C912.172 140.183 889.628 133.03 866.516 133C865.739 133.004 864.962 133.068 864.194 133.196L622.53 173.546C615.955 174.646 609.982 178.041 605.674 183.137C601.365 188.232 599 194.691 599 201.367V290.29C599 296.966 601.365 303.425 605.674 308.521C609.982 313.612 615.955 317.012 622.53 318.107L796.118 347.09V443.278C796.118 450.759 799.085 457.933 804.363 463.221C809.644 468.512 816.809 471.482 824.277 471.482C824.277 490.185 831.693 508.121 844.895 521.346C858.097 534.57 876.004 542 894.675 542H922.833C926.569 542 930.152 540.513 932.79 537.867C935.433 535.226 936.915 531.639 936.915 527.898C936.915 524.157 935.433 520.57 932.79 517.924C930.152 515.279 926.569 513.792 922.833 513.792H894.675C883.471 513.792 872.729 509.335 864.809 501.402C856.884 493.465 852.435 482.703 852.435 471.482H857.452C862.862 471.486 868.156 469.927 872.703 466.991C877.25 464.06 880.858 459.876 883.096 454.947ZM627.159 201.367L867.644 161.208C890.047 161.208 911.536 170.121 927.376 185.991C943.221 201.861 952.119 223.385 952.119 245.829C952.119 268.272 943.221 289.796 927.376 305.662C911.536 321.532 890.047 330.449 867.644 330.449L627.159 290.307V201.367ZM864.194 358.461C864.962 358.589 865.739 358.653 866.516 358.657C877.127 358.653 887.686 357.145 897.877 354.175L857.401 443.278H824.277V351.798L864.194 358.461Z" fill="black"/>
</svg>
