<svg width="1631" height="675" viewBox="0 0 1631 675" fill="none" xmlns="http://www.w3.org/2000/svg">
<rect width="1631" height="675" fill="white"/>
<path d="M607 519.942V155.058C607 141.231 612.47 127.974 622.292 118.199C632.055 108.423 645.289 102.93 659.11 102.93H1008.35C1012.53 102.93 1016.47 104.577 1019.41 107.512C1022.35 110.441 1024 114.423 1024 118.569V460.362M659.11 467.814H1024M659.11 572.07H1024" stroke="black" stroke-width="20" stroke-linecap="round"/>
<path d="M737.335 207.181H893.724" stroke="black" stroke-width="20" stroke-linecap="round"/>
<path d="M659.11 572.07C645.289 572.07 632.055 566.577 622.292 556.802C612.47 547.027 607 533.77 607 519.942C607 506.121 612.47 492.858 622.292 483.083C632.055 473.308 645.289 467.82 659.11 467.82" stroke="black" stroke-width="20" stroke-linecap="round" stroke-linejoin="round"/>
</svg>
