<svg width="1631" height="675" viewBox="0 0 1631 675" fill="none" xmlns="http://www.w3.org/2000/svg">
<rect width="1631" height="675" fill="white"/>
<path d="M914.093 115L919.829 144.359L963.812 135.745L965.827 135.488C972.502 135.101 978.659 139.243 980.816 145.584L981.339 147.55L981.596 149.567C981.983 156.256 977.84 162.421 971.506 164.574L969.543 165.098L925.566 173.713L933.214 212.855L977.191 204.24L979.205 203.984C985.886 203.597 992.043 207.744 994.195 214.086L994.718 216.046L994.974 218.068C995.367 224.752 991.224 230.916 984.89 233.076L982.927 233.6L938.944 242.209L944.68 271.568L886.038 283.049L882.118 283.715C847.092 288.803 813.585 270.087 798.852 239.178L773.483 244.134L770.945 244.807C766.797 246.208 763.223 248.938 760.782 252.573C755.114 261.005 756.742 272.212 764.202 278.724L766.188 280.251L887.046 361.663L890.249 363.976C901.705 372.847 909.552 385.581 912.335 399.814C918.441 431.082 899.024 461.421 868.591 469.238L865.165 470.013L839.796 474.993C837.782 509.178 813.79 539.159 779.43 547.659L775.543 548.52L716.901 560L711.171 530.646L667.188 539.261C659.767 540.714 652.552 536.39 650.184 529.416L649.661 527.45C648.21 520.021 652.523 512.802 659.489 510.426L661.452 509.902L705.435 501.293L697.787 462.151L653.809 470.76C646.383 472.212 639.173 467.894 636.8 460.92L636.282 458.954C634.825 451.525 639.145 444.3 646.11 441.93L648.073 441.406L692.05 432.791L686.32 403.438L744.956 391.951C781.393 384.818 816.88 403.774 832.154 435.839L857.517 430.871L859.771 430.29C869.268 427.259 875.198 417.505 873.24 407.471C872.398 403.17 870.167 399.261 866.889 396.361L864.812 394.754L743.949 313.337L740.762 311.041C716.031 291.937 710.044 256.623 727.731 230.307C735.817 218.279 747.989 209.596 761.988 205.881L765.835 204.992L791.198 200.03C793.201 165.879 817.148 135.916 851.451 127.375L855.457 126.486L914.093 115ZM752.604 431.093L733.057 434.922L748.348 513.206L767.895 509.378L770.792 508.699C789.736 503.515 802.09 485.18 799.825 465.666L799.342 462.578L798.664 459.678C793.492 440.716 775.179 428.341 755.689 430.615L752.604 431.093ZM882.647 161.799L863.099 165.628L860.061 166.346C842.209 171.303 830.236 187.962 830.936 206.24L831.192 209.482L831.653 212.422L832.37 215.465C837.321 233.343 853.96 245.325 872.216 244.63L875.454 244.374L878.396 243.907L897.943 240.078L882.647 161.799Z" fill="black"/>
</svg>
