<svg width="1631" height="675" viewBox="0 0 1631 675" fill="none" xmlns="http://www.w3.org/2000/svg">
<rect width="1631" height="675" fill="white"/>
<path fill-rule="evenodd" clip-rule="evenodd" d="M793.361 105.239C796.488 104.218 799.79 103.821 803.075 104.074C806.36 104.327 809.561 105.222 812.496 106.71C815.435 108.199 818.047 110.246 820.19 112.742C822.333 115.239 823.964 118.132 824.983 121.257C838.337 162.096 836.583 206.356 820.037 246.008C818.773 249.045 816.918 251.799 814.582 254.121C812.251 256.439 809.482 258.281 806.438 259.533C803.39 260.781 800.127 261.423 796.833 261.419C793.54 261.41 790.281 260.755 787.242 259.494C784.202 258.228 781.442 256.378 779.115 254.047C776.792 251.716 774.951 248.954 773.696 245.916C772.441 242.874 771.798 239.618 771.806 236.332C771.811 233.041 772.467 229.789 773.735 226.751C785.663 198.164 786.931 166.255 777.313 136.812C776.289 133.687 775.891 130.392 776.145 127.114C776.399 123.837 777.295 120.637 778.783 117.704C780.274 114.776 782.33 112.166 784.827 110.027C787.329 107.884 790.229 106.261 793.361 105.239ZM918.995 209.232C918.544 205.976 917.451 202.838 915.784 200.006C914.122 197.169 911.909 194.685 909.285 192.704C906.656 190.723 903.664 189.274 900.48 188.444C897.292 187.615 893.972 187.423 890.713 187.872C887.451 188.322 884.31 189.413 881.467 191.076C878.628 192.739 876.144 194.943 874.154 197.566C872.168 200.189 870.721 203.174 869.889 206.356C869.058 209.538 868.862 212.851 869.317 216.106C870.812 226.664 868.359 237.405 862.428 246.274C860.608 249.015 859.344 252.087 858.71 255.313C858.076 258.538 858.085 261.859 858.736 265.08C860.053 271.592 863.906 277.31 869.448 280.985C874.989 284.66 881.769 285.982 888.286 284.668C894.807 283.355 900.537 279.51 904.22 273.975C916.917 254.929 922.174 231.893 918.995 209.232ZM682.869 232.059C693.121 229.418 703.881 229.44 714.124 232.115C724.368 234.791 733.758 240.033 741.408 247.343L878.808 384.511L879.009 384.711C886.248 392.127 891.496 401.24 894.282 411.213C897.064 421.185 897.292 431.695 894.943 441.782C892.59 451.864 887.739 461.195 880.828 468.916C873.922 476.636 865.179 482.498 855.408 485.963L636.532 567.396L636.196 567.531C625.431 571.324 613.819 572.022 602.674 569.548C591.534 567.073 581.313 561.522 573.177 553.526C565.042 545.53 559.321 535.413 556.666 524.327C554.016 513.246 554.536 501.641 558.166 490.838L639.375 272.574C642.656 262.732 648.355 253.864 655.952 246.789C663.549 239.71 672.804 234.647 682.869 232.059ZM703.43 272.439C698.252 271.112 692.758 271.863 688.135 274.534C683.507 277.205 680.113 281.583 678.687 286.724L597.553 504.822C596.547 508.187 596.49 511.762 597.395 515.157C598.301 518.553 600.124 521.63 602.67 524.052C605.216 526.479 608.382 528.151 611.82 528.892C615.258 529.634 618.836 529.412 622.156 528.251L840.965 446.818L841.298 446.683C844.464 445.561 847.299 443.667 849.543 441.175C851.786 438.678 853.365 435.667 854.144 432.402C854.922 429.142 854.87 425.738 853.995 422.504C853.116 419.269 851.441 416.302 849.123 413.879L712.121 277.148C709.658 274.892 706.671 273.251 703.43 272.439ZM897.9 314.792C920.193 309.747 943.567 313.112 963.525 324.237C969.184 327.545 973.322 332.931 975.05 339.246C976.777 345.566 975.955 352.305 972.762 358.022C969.569 363.744 964.259 367.987 957.97 369.842C951.685 371.701 944.914 371.02 939.119 367.956C929.96 362.845 919.231 361.3 909 363.618C902.514 365.089 895.708 363.923 890.079 360.384C884.454 356.844 880.465 351.218 878.996 344.746C877.522 338.269 878.685 331.478 882.233 325.86C885.78 320.243 891.413 316.263 897.9 314.792ZM948.448 214.67C948.448 204.802 952.376 195.336 959.365 188.357C966.354 181.378 975.837 177.459 985.722 177.459C995.611 177.459 1005.09 181.378 1012.08 188.357C1019.07 195.336 1023 204.802 1023 214.67C1023 224.539 1019.07 234.005 1012.08 240.984C1005.09 247.963 995.611 251.882 985.722 251.882C975.837 251.882 966.354 247.963 959.365 240.984C952.376 234.005 948.448 224.539 948.448 214.67Z" fill="black"/>
</svg>
