<svg width="1631" height="675" viewBox="0 0 1631 675" fill="none" xmlns="http://www.w3.org/2000/svg">
<rect width="1631" height="675" fill="white"/>
<path d="M716.877 192.665L658.973 115.333C651.738 105.669 634.85 96 620.374 96H548M934 192.665L765.123 386L596.251 192.665H934Z" stroke="black" stroke-width="20" stroke-linecap="round" stroke-linejoin="round"/>
<path d="M870.727 267.18C887.409 281.466 908.453 289.632 930.39 290.33C952.327 291.028 973.85 284.22 991.409 271.025C1008.96 257.83 1021.5 239.038 1026.97 217.742C1032.42 196.452 1030.48 173.929 1021.44 153.894C1012.41 133.858 996.828 117.504 977.27 107.527C957.708 97.5505 935.341 94.5503 913.85 99.0178C892.36 103.485 873.026 115.153 859.046 132.101C845.065 149.05 837.266 170.264 836.94 192.241M764.539 385.62V579M668 579H861.071" stroke="black" stroke-width="20" stroke-linecap="round" stroke-linejoin="round"/>
</svg>
