<svg width="1631" height="675" viewBox="0 0 1631 675" fill="none" xmlns="http://www.w3.org/2000/svg">
<rect width="1631" height="675" fill="white"/>
<path d="M679.069 93.2148V166.5M752.36 93.2148V166.5M825.645 93.2148V166.5M618 142.074H960V252.002L898.931 337.503V484.074C898.931 484.074 898.931 581.786 789.003 581.786C679.069 581.786 679.069 484.074 679.069 484.074V337.503L618 252.002V142.074Z" stroke="black" stroke-width="20" stroke-linecap="round" stroke-linejoin="round"/>
<path d="M825.634 422.998C825.634 402.761 809.229 386.355 788.992 386.355C768.755 386.355 752.349 402.761 752.349 422.998V471.856C752.349 492.093 768.755 508.499 788.992 508.499C809.229 508.499 825.634 492.093 825.634 471.856V422.998Z" stroke="black" stroke-width="20" stroke-linecap="round" stroke-linejoin="round"/>
<path d="M618 252.002H960M898.931 93.2148V166.5" stroke="black" stroke-width="20" stroke-linecap="round" stroke-linejoin="round"/>
</svg>
