<svg width="1631" height="675" viewBox="0 0 1631 675" fill="none" xmlns="http://www.w3.org/2000/svg">
<rect width="1631" height="675" fill="white"/>
<path d="M615.469 535.855L759.693 391.726M941.304 327.64L898.133 457.086C897.442 459.155 896.261 461.031 894.691 462.549C893.121 464.067 891.208 465.186 889.111 465.804L624.47 544.436C622.082 545.146 619.55 545.187 617.147 544.553C614.738 543.924 612.554 542.642 610.826 540.858C609.097 539.069 607.89 536.846 607.338 534.419C606.786 531.996 606.914 529.472 607.696 527.111L693.631 269.527C694.25 267.677 695.257 265.981 696.582 264.555C697.911 263.129 699.533 262.005 701.338 261.259L823.418 211.027C825.898 210.005 828.629 209.739 831.263 210.26C833.896 210.786 836.315 212.079 838.212 213.975L938.016 313.734C939.801 315.518 941.054 317.761 941.637 320.219C942.215 322.672 942.102 325.243 941.304 327.64Z" stroke="black" stroke-width="20" stroke-linecap="round" stroke-linejoin="round"/>
<path d="M957.644 141.581L1011.11 195.062C1015.13 198.906 1018.34 203.516 1020.55 208.621C1022.77 213.721 1023.94 219.214 1024 224.778C1024.06 230.338 1023.01 235.856 1020.91 241.007C1018.81 246.159 1015.7 250.835 1011.77 254.766C1007.84 258.702 1003.16 261.811 998.012 263.909C992.862 266.007 987.345 267.059 981.786 266.997C976.223 266.936 970.731 265.762 965.632 263.552C960.527 261.336 955.923 258.125 952.075 254.107L898.584 200.626C891.04 192.739 886.885 182.212 887.002 171.298C887.125 160.383 891.514 149.948 899.232 142.229C906.949 134.51 917.382 130.12 928.295 130.003C939.207 129.88 949.758 134.036 957.644 141.581Z" fill="black" stroke="black" stroke-width="6" stroke-linecap="round" stroke-linejoin="round"/>
<path d="M807.454 343.38C804.319 340.132 800.564 337.544 796.421 335.759C792.273 333.978 787.808 333.037 783.297 333.001C778.78 332.96 774.305 333.82 770.126 335.534C765.947 337.242 762.152 339.764 758.96 342.956C755.768 346.153 753.241 349.948 751.533 354.127C749.825 358.307 748.965 362.782 749.001 367.294C749.042 371.811 749.978 376.271 751.763 380.42C753.543 384.568 756.131 388.323 759.379 391.459C765.793 397.653 774.381 401.08 783.297 400.999C792.212 400.922 800.738 397.346 807.04 391.044C813.347 384.737 816.922 376.21 816.999 367.294C817.075 358.383 813.648 349.79 807.454 343.38Z" stroke="black" stroke-width="20" stroke-linecap="round" stroke-linejoin="round"/>
</svg>
