<svg width="1631" height="675" viewBox="0 0 1631 675" fill="none" xmlns="http://www.w3.org/2000/svg">
<rect width="1631" height="675" fill="white"/>
<path d="M879.321 402.216C879.224 388.562 875.624 375.177 868.911 363.35C862.198 351.524 852.567 341.655 840.99 334.699L959 127.176L931.419 111L810.587 323.36C795.799 319.999 780.379 320.466 765.737 324.714C751.144 328.961 737.816 336.857 727.017 347.675C667.321 406.098 671.942 542.675 672.166 548.467C672.331 552.646 674.082 556.596 677.054 559.494C680.027 562.388 683.991 564.005 688.111 564H927.138C930.494 564 933.754 562.933 936.429 560.946C939.153 558.958 941.197 556.158 942.267 552.938C943.288 549.718 943.336 546.24 942.364 542.996C941.342 539.757 939.348 536.917 936.673 534.876C880.245 491.91 879.321 403.088 879.321 402.216ZM798.426 353.628C811.219 353.774 823.429 358.903 832.526 367.948C841.671 376.999 847.021 389.274 847.459 402.216C847.459 402.829 847.508 405.582 847.702 409.8L753.673 367.349C759.851 362.167 767.002 358.28 774.688 355.927C782.373 353.569 790.448 352.79 798.426 353.628ZM854.561 531.642C841.817 518.476 833.693 501.423 831.456 483.108H799.545C800.712 500.327 806.015 516.995 815.014 531.642H779.552C772.985 510.648 768.996 488.914 767.683 466.926H735.772C736.794 488.846 740.345 510.565 746.377 531.642H703.896C704.387 501.939 708.517 436.317 732.659 393.268L852.762 447.467C858.502 477.876 870.809 506.615 888.758 531.642H854.561Z" fill="black"/>
</svg>
