<svg width="1631" height="675" viewBox="0 0 1631 675" fill="none" xmlns="http://www.w3.org/2000/svg">
<rect width="1631" height="675" fill="white"/>
<path d="M715.785 328.312V239.841C715.785 234.566 717.66 230.063 721.355 226.337C725.103 222.61 729.601 220.747 734.903 220.747C740.258 220.747 744.757 222.61 748.452 226.337C752.201 230.063 754.022 234.566 754.022 239.841V328.312C754.022 333.586 752.201 338.084 748.452 341.81C744.757 345.537 740.205 347.4 734.903 347.4C729.601 347.4 725.103 345.537 721.355 341.81C717.66 338.084 715.785 333.586 715.785 328.312ZM818.713 359.362V145.137C818.713 139.831 820.534 135.317 824.283 131.59C827.978 127.863 832.476 126 837.778 126C843.133 126 847.631 127.863 851.326 131.59C855.075 135.317 856.95 139.831 856.95 145.137V359.362C856.95 365.745 854.968 370.526 851.059 373.717C847.15 376.909 842.759 378.504 837.885 378.504C833.012 378.504 828.567 376.909 824.604 373.717C820.641 370.526 818.659 365.745 818.713 359.362ZM612 410.101V334.635C612 329.329 613.875 324.81 617.57 321.083C621.265 317.357 625.816 315.493 631.118 315.493C636.473 315.493 640.972 317.357 644.667 321.083C648.362 324.81 650.237 329.329 650.237 334.635V410.122C650.237 416.505 648.255 421.281 644.346 424.456C640.437 427.642 636.045 429.237 631.172 429.237C626.298 429.237 621.907 427.642 617.944 424.456C613.981 421.281 612 416.505 612 410.122M637.706 549C632.404 549 628.762 546.59 626.727 541.777C624.692 536.974 625.602 532.642 629.458 528.771L721.997 436.225C725.425 432.782 729.655 430.865 734.636 430.469C739.67 430.078 744.114 431.599 748.024 435.042L818.713 495.798L978.568 335.819H936.154C932.78 335.819 929.995 334.684 927.693 332.408C925.443 330.132 924.319 327.316 924.319 323.953C924.265 320.585 925.443 317.774 927.693 315.52C929.995 313.261 932.834 312.131 936.154 312.131H999.882C1005.29 312.131 1009.84 313.962 1013.48 317.624C1017.18 321.292 1019 325.838 1019 331.273V395.033C1019 398.401 1017.88 401.212 1015.57 403.467C1013.32 405.726 1010.49 406.861 1007.17 406.877C1003.79 406.893 1000.95 405.758 998.703 403.467C996.454 401.18 995.33 398.369 995.33 395.033V352.589L831.887 516.124C828.46 519.551 824.229 521.462 819.195 521.853C814.214 522.249 809.716 520.723 805.86 517.286L735.171 456.529L646.22 545.541C645.203 546.489 643.971 547.303 642.418 547.983C640.865 548.663 639.312 549 637.706 549Z" fill="black"/>
</svg>
