<svg width="1631" height="675" viewBox="0 0 1631 675" fill="none" xmlns="http://www.w3.org/2000/svg">
<rect width="1631" height="675" fill="white"/>
<path d="M1008.52 408.417C1008.74 404.81 1009.5 401.203 1009.5 397.596V409.619L1008.52 408.417ZM767.002 397.596C767.002 414.668 770.653 431.022 777.192 445.695H645.75V469.742C645.75 482.968 634.852 493.794 621.501 493.794H597.25C583.899 493.794 573 482.968 573 469.742V277.345L623.462 133.047C628.312 119.103 641.881 109 657.848 109H924.601C940.622 109 954.191 119.103 959.041 133.047L1009.5 277.345V397.596C1009.5 331.216 955.172 277.345 888.253 277.345C821.333 277.345 767.002 331.216 767.002 397.596ZM694.251 337.467C694.251 317.506 678.011 301.397 657.848 301.397C637.74 301.397 621.501 317.506 621.501 337.467C621.501 357.429 637.74 373.543 657.848 373.543C678.011 373.543 694.251 357.429 694.251 337.467ZM961.003 253.298L924.601 145.076H657.848L621.501 253.298H961.003ZM1054.84 522.411L955.172 423.568C965.145 398.553 959.532 369.213 938.66 348.773C916.862 326.886 884.111 322.561 857.681 334.584L904.71 381.241L872.013 413.95L823.731 367.053C810.652 393.265 816.701 425.734 838.063 447.615C847.654 457.359 859.97 464.1 873.43 467.005C886.836 469.91 900.841 468.855 913.702 463.969L1013.37 562.573C1017.73 567.143 1024.27 567.143 1028.63 562.573L1053.86 537.802C1059.2 533.471 1059.2 525.779 1054.84 522.411Z" fill="black"/>
</svg>
