<svg width="1631" height="675" viewBox="0 0 1631 675" fill="none" xmlns="http://www.w3.org/2000/svg">
<rect width="1631" height="675" fill="white"/>
<path d="M632 332.909C632 263.716 632 229.103 653.505 207.62C675.01 186.131 709.601 186.109 778.8 186.109H852.2C921.399 186.109 956.006 186.109 977.495 207.62C998.983 229.125 999 263.716 999 332.909V369.609C999 438.808 999 473.416 977.495 494.904C955.99 516.393 921.399 516.409 852.2 516.409H778.8C709.601 516.409 674.994 516.41 653.505 494.904C632.016 473.399 632 438.808 632 369.609V332.909Z" stroke="black" stroke-width="20"/>
<path d="M723.75 186.115V158.59M907.25 186.115V158.59M641.175 277.865H989.825" stroke="black" stroke-width="20" stroke-linecap="round"/>
<path d="M925.606 424.667C925.606 429.536 923.672 434.203 920.227 437.643C916.787 441.083 912.119 443.016 907.255 443.016C902.386 443.016 897.719 441.083 894.279 437.643C890.834 434.203 888.905 429.536 888.905 424.667C888.905 419.802 890.834 415.135 894.279 411.69C897.719 408.25 902.386 406.316 907.255 406.316C912.119 406.316 916.787 408.25 920.227 411.69C923.672 415.135 925.606 419.802 925.606 424.667ZM925.606 351.266C925.606 356.136 923.672 360.803 920.227 364.243C916.787 367.683 912.119 369.616 907.255 369.616C902.386 369.616 897.719 367.683 894.279 364.243C890.834 360.803 888.905 356.136 888.905 351.266C888.905 346.402 890.834 341.735 894.279 338.29C897.719 334.85 902.386 332.917 907.255 332.917C912.119 332.917 916.787 334.85 920.227 338.29C923.672 341.735 925.606 346.402 925.606 351.266ZM833.856 424.667C833.856 429.536 831.922 434.203 828.477 437.643C825.037 441.083 820.369 443.016 815.505 443.016C810.636 443.016 805.969 441.083 802.529 437.643C799.084 434.203 797.155 429.536 797.155 424.667C797.155 419.802 799.084 415.135 802.529 411.69C805.969 408.25 810.636 406.316 815.505 406.316C820.369 406.316 825.037 408.25 828.477 411.69C831.922 415.135 833.856 419.802 833.856 424.667ZM833.856 351.266C833.856 356.136 831.922 360.803 828.477 364.243C825.037 367.683 820.369 369.616 815.505 369.616C810.636 369.616 805.969 367.683 802.529 364.243C799.084 360.803 797.155 356.136 797.155 351.266C797.155 346.402 799.084 341.735 802.529 338.29C805.969 334.85 810.636 332.917 815.505 332.917C820.369 332.917 825.037 334.85 828.477 338.29C831.922 341.735 833.856 346.402 833.856 351.266ZM742.106 424.667C742.106 429.536 740.172 434.203 736.726 437.643C733.286 441.083 728.62 443.016 723.756 443.016C718.886 443.016 714.219 441.083 710.779 437.643C707.334 434.203 705.405 429.536 705.405 424.667C705.405 419.802 707.334 415.135 710.779 411.69C714.219 408.25 718.886 406.316 723.756 406.316C728.62 406.316 733.286 408.25 736.726 411.69C740.172 415.135 742.106 419.802 742.106 424.667ZM742.106 351.266C742.106 356.136 740.172 360.803 736.726 364.243C733.286 367.683 728.62 369.616 723.756 369.616C718.886 369.616 714.219 367.683 710.779 364.243C707.334 360.803 705.405 356.136 705.405 351.266C705.405 346.402 707.334 341.735 710.779 338.29C714.219 334.85 718.886 332.917 723.756 332.917C728.62 332.917 733.286 334.85 736.726 338.29C740.172 341.735 742.106 346.402 742.106 351.266Z" fill="black"/>
</svg>
