<svg width="1631" height="675" viewBox="0 0 1631 675" fill="none" xmlns="http://www.w3.org/2000/svg">
<rect width="1631" height="675" fill="white"/>
<path fill-rule="evenodd" clip-rule="evenodd" d="M698.095 204.44V175.347C698.095 164.927 701.79 154.851 708.542 146.954C715.295 139.064 724.659 133.87 734.916 132.322L765.047 127.771C798.491 122.743 832.509 122.743 865.953 127.771L896.084 132.322C906.341 133.87 915.705 139.064 922.458 146.954C929.21 154.851 932.905 164.927 932.905 175.347V204.44L975.267 207.876C991.065 209.157 1005.91 215.714 1017.57 226.511C1029.16 237.3 1036.87 251.704 1039.35 267.407C1050.88 338.85 1050.88 411.689 1039.35 483.126C1036.87 498.829 1029.16 513.233 1017.57 524.029C1005.91 534.819 991.065 541.383 975.267 542.664L929.018 546.392C853.467 552.536 777.533 552.536 701.982 546.392L655.733 542.664C639.935 541.383 625.092 534.819 613.434 524.029C601.84 513.233 594.132 498.829 591.648 483.126C580.117 411.689 580.117 338.85 591.648 267.407C594.132 251.71 601.84 237.313 613.434 226.523C625.092 215.734 639.935 209.176 655.733 207.895L698.095 204.44ZM770.589 164.653C800.338 160.172 830.662 160.172 860.411 164.653L890.542 169.203C892.007 169.42 893.345 170.166 894.364 171.287C895.32 172.415 895.829 173.856 895.829 175.347V201.827C842.319 198.756 788.681 198.756 735.171 201.827V175.321C735.171 173.83 735.68 172.39 736.636 171.262C737.655 170.14 738.993 169.394 740.458 169.178L770.589 164.653ZM704.976 241.296C778.552 235.331 852.448 235.331 926.024 241.296L972.273 245.076C979.79 245.681 986.861 248.797 992.403 253.928C997.945 259.058 1001.58 265.909 1002.79 273.379C1004.32 282.945 1005.65 292.543 1006.74 302.179C947.238 331.642 881.815 346.963 815.5 346.963C749.185 346.963 683.762 331.642 624.264 302.179C625.347 292.562 626.684 282.964 628.213 273.379C629.423 265.909 633.055 259.058 638.597 253.928C644.139 248.797 651.21 245.681 658.727 245.076L704.976 241.296ZM620.951 341.871C682.042 369.811 748.357 384.272 815.5 384.272C882.643 384.272 948.958 369.811 1010.05 341.871C1012.41 387.095 1009.99 432.446 1002.79 477.154C1001.58 484.63 997.945 491.487 992.403 496.624C986.861 501.754 979.79 504.877 972.273 505.483L926.024 509.211C852.448 515.183 778.552 515.183 704.976 509.211L658.727 505.483C651.21 504.877 644.139 501.754 638.597 496.624C633.055 491.487 629.423 484.63 628.213 477.154C621.015 432.389 618.53 387.031 620.951 341.871Z" fill="black"/>
</svg>
