<svg width="24" height="26" viewBox="0 0 24 26" fill="none" xmlns="http://www.w3.org/2000/svg">
<path d="M16.0281 20.7632C16.0281 21.3195 15.9174 21.8705 15.7024 22.3845C15.4874 22.8986 15.1723 23.3656 14.775 23.7591C14.3777 24.1525 13.906 24.4646 13.3869 24.6775C12.8678 24.8904 12.3115 25 11.7496 25C11.1878 25 10.6314 24.8904 10.1123 24.6775C9.59325 24.4646 9.1216 24.1525 8.72431 23.7591C8.32702 23.3656 8.01186 22.8986 7.79685 22.3845C7.58184 21.8705 7.47117 21.3195 7.47117 20.7632M20.589 20.7632H2.91155C2.48392 20.763 2.06593 20.6372 1.71045 20.4019C1.35496 20.1665 1.07794 19.832 0.914392 19.4407C0.750846 19.0494 0.708125 18.6189 0.791629 18.2036C0.875133 17.7883 1.08111 17.4068 1.38353 17.1074L2.11942 16.3774C2.80677 15.6963 3.19282 14.7728 3.19271 13.8099V10.4737C3.19271 8.22632 4.09424 6.07101 5.69897 4.48188C7.30371 2.89276 9.4802 2 11.7496 2C14.0191 2 16.1956 2.89276 17.8003 4.48188C19.405 6.07101 20.3066 8.22632 20.3066 10.4737V13.8099C20.3068 14.773 20.6933 15.6965 21.3811 16.3774L22.1182 17.1074C22.42 17.407 22.6255 17.7884 22.7086 18.2036C22.7918 18.6187 22.749 19.0489 22.5855 19.44C22.4221 19.831 22.1453 20.1654 21.7902 20.4008C21.4351 20.6363 21.0163 20.7624 20.589 20.7632Z" stroke="black" stroke-width="1.5" stroke-linecap="round" stroke-linejoin="round"/>
<circle cx="17.75" cy="4" r="4" fill="#00E7FF"/>
</svg>
