<svg width="1631" height="675" viewBox="0 0 1631 675" fill="none" xmlns="http://www.w3.org/2000/svg">
<rect width="1631" height="675" fill="white"/>
<path d="M888.813 438.499C888.813 448.155 886.912 457.709 883.233 466.626C879.548 475.542 874.147 483.65 867.335 490.47C860.528 497.296 852.446 502.711 843.552 506.403C834.658 510.101 825.121 512 815.495 512C805.868 512 796.331 510.101 787.437 506.403C778.543 502.711 770.456 497.296 763.649 490.47C756.842 483.65 751.442 475.542 747.757 466.626C744.072 457.709 742.176 448.155 742.176 438.499M966.969 438.499H664.041C656.714 438.499 649.551 436.318 643.46 432.232C637.365 428.146 632.618 422.347 629.819 415.559C627.016 408.771 626.283 401.302 627.711 394.098C629.145 386.89 632.676 380.271 637.858 375.079L650.469 362.418C662.247 350.602 668.863 334.578 668.857 317.878V260.002C668.857 221.012 684.309 183.623 711.809 156.055C739.309 128.486 776.605 113 815.495 113C854.384 113 891.681 128.486 919.18 156.055C946.68 183.623 962.127 221.012 962.127 260.002V317.878C962.132 334.583 968.753 350.607 980.541 362.418L993.173 375.079C998.345 380.277 1001.87 386.895 1003.29 394.098C1004.72 401.296 1003.98 408.76 1001.18 415.543C998.382 422.331 993.641 428.13 987.556 432.216C981.47 436.302 974.292 438.488 966.969 438.499Z" stroke="black" stroke-width="20" stroke-linecap="round" stroke-linejoin="round"/>
</svg>
