<svg width="74" height="74" viewBox="0 0 74 74" fill="none" xmlns="http://www.w3.org/2000/svg">
<path d="M40.2308 12.9468L22.1872 8.04262C20.0603 7.46455 17.7909 7.75504 15.8783 8.8502C13.9656 9.94536 12.5663 11.7555 11.9882 13.8824L2.17978 49.9695C1.6017 52.0964 1.89219 54.3658 2.98735 56.2785C4.08251 58.1912 5.89263 59.5905 8.0195 60.1686L48.1164 71.0668C50.2432 71.6449 52.5126 71.3544 54.4253 70.2592C56.338 69.1641 57.7373 67.3539 58.3154 65.2271L63.2196 47.1835" stroke="#00E7FF" stroke-width="3" stroke-linecap="round" stroke-linejoin="round"/>
<path d="M61.1954 22.9508L63.9268 27.9991M71.4304 16.9788C72.2011 18.3742 72.3916 20.0168 71.9608 21.5515C71.5299 23.0862 70.5123 24.3897 69.1281 25.1801L33.5182 45.5695L20.3993 46.3097L27.6784 35.3705L63.373 14.7329C64.6279 14.009 66.1065 13.7757 67.5233 14.0781C68.9401 14.3805 70.1946 15.1971 71.0446 16.3702L71.4304 16.9788Z" stroke="#00E7FF" stroke-width="3" stroke-linecap="round" stroke-linejoin="round"/>
</svg>
