<svg width="1631" height="675" viewBox="0 0 1631 675" fill="none" xmlns="http://www.w3.org/2000/svg">
<rect width="1631" height="675" fill="white"/>
<path d="M790.209 161.089L665.864 160.637C651.206 160.585 637.126 166.361 626.728 176.686C616.325 187.013 610.453 201.048 610.401 215.706L609.505 464.399C609.453 479.057 615.23 493.138 625.555 503.535C635.881 513.939 649.916 519.81 664.574 519.862L940.902 520.858C955.56 520.909 969.634 515.135 980.038 504.808C990.435 494.483 996.313 480.447 996.365 465.789L996.809 341.44" stroke="black" stroke-width="20" stroke-linecap="round" stroke-linejoin="round"/>
<path d="M942.105 189.263L968.343 216.987M997.571 133.278C1004.93 140.918 1008.97 151.139 1008.85 161.739C1008.73 172.341 1004.43 182.464 996.901 189.927L803.249 382.191L720.25 409.525L748.18 326.728L941.951 132.725C948.767 125.914 957.858 121.867 967.482 121.374C977.104 120.875 986.565 123.965 994.044 130.037L997.571 133.278Z" stroke="black" stroke-width="20" stroke-linecap="round" stroke-linejoin="round"/>
</svg>
