<svg width="1631" height="675" viewBox="0 0 1631 675" fill="none" xmlns="http://www.w3.org/2000/svg">
<rect width="1631" height="675" fill="white"/>
<path d="M632.315 286.525C656.34 200.183 668.361 156.988 702.646 137.631C736.932 118.268 780.103 130.284 866.469 154.315C952.817 178.34 996.012 190.361 1015.37 224.646C1034.73 258.932 1022.72 302.103 998.685 388.469C974.66 474.817 962.639 518.012 928.354 537.369C894.068 556.732 850.897 544.716 764.525 520.685C678.183 496.66 634.988 484.639 615.631 450.354C596.268 416.068 608.284 372.897 632.315 286.525Z" stroke="black" stroke-width="20" stroke-linejoin="round"/>
<path d="M823.624 308.732C816.045 306.594 807.934 307.596 801.083 311.514C794.226 315.433 789.197 321.952 787.087 329.631C784.976 337.315 785.965 345.527 789.833 352.468C793.7 359.414 800.135 364.516 807.714 366.648C815.299 368.786 823.405 367.784 830.256 363.866C837.112 359.947 842.148 353.428 844.258 345.75C846.362 338.065 845.374 329.853 841.506 322.913C837.638 315.966 831.204 310.864 823.624 308.732ZM823.624 308.732L842.223 241M857 412L830.192 363.918" stroke="black" stroke-width="20" stroke-linecap="round" stroke-linejoin="round"/>
</svg>
