<svg width="81" height="81" viewBox="0 0 81 81" fill="none" xmlns="http://www.w3.org/2000/svg">
<path d="M8.71348 31.3151C12.8207 16.5542 14.8753 9.17052 20.7363 5.86119C26.5973 2.55186 33.9777 4.60549 48.7419 8.71366C63.5028 12.8209 70.8865 14.8755 74.1958 20.7365C77.5052 26.5975 75.4515 33.9779 71.3434 48.7421C67.2361 63.503 65.1816 70.8867 59.3205 74.196C53.4595 77.5053 46.0791 75.4517 31.3149 71.3435C16.5541 67.2363 9.17033 65.1817 5.861 59.3207C2.55168 53.4597 4.6053 46.0793 8.71348 31.3151Z" stroke="#034660" stroke-width="3" stroke-linejoin="round"/>
<path d="M41.4247 35.1181C40.1134 34.7532 38.7108 34.9242 37.5255 35.5935C36.3402 36.2627 35.4693 37.3754 35.1045 38.6868C34.7396 39.9981 34.9106 41.4007 35.5798 42.586C36.2491 43.7713 37.3618 44.6421 38.6731 45.007C39.9845 45.3719 41.3871 45.2009 42.5723 44.5317C43.7576 43.8624 44.6285 42.7497 44.9934 41.4384C45.3583 40.127 45.1873 38.7244 44.518 37.5391C43.8488 36.3539 42.7361 35.483 41.4247 35.1181ZM41.4247 35.1181L44.6423 23.5546M47.1983 52.7491L42.5605 44.5402" stroke="#034660" stroke-width="3" stroke-linecap="round" stroke-linejoin="round"/>
</svg>
