<svg width="1631" height="675" viewBox="0 0 1631 675" fill="none" xmlns="http://www.w3.org/2000/svg">
<rect width="1631" height="675" fill="white"/>
<path d="M991.9 303.906H848.319C835.265 303.906 822.739 298.723 813.508 289.492C804.277 280.261 799.094 267.735 799.094 254.681V111.1C799.094 110.017 798.662 108.973 797.888 108.199C797.121 107.432 796.077 107 794.987 107H700.638C683.226 107 666.536 113.917 654.223 126.223C641.917 138.536 635 155.226 635 172.638V500.819C635 518.224 641.917 534.92 654.223 547.233C666.536 559.539 683.226 566.456 700.638 566.456H930.362C947.774 566.456 964.464 559.539 976.777 547.233C989.083 534.92 996 518.224 996 500.819V308.013C996 306.923 995.568 305.879 994.801 305.112C994.028 304.338 992.983 303.906 991.9 303.906Z" fill="black"/>
<path d="M982.894 267.601L835.407 120.113C835.123 119.829 834.756 119.636 834.362 119.552C833.963 119.475 833.55 119.52 833.176 119.675C832.809 119.829 832.486 120.087 832.261 120.423C832.035 120.758 831.913 121.157 831.913 121.557V254.689C831.913 259.04 833.64 263.211 836.715 266.292C839.797 269.367 843.967 271.095 848.319 271.095H981.45C981.856 271.095 982.25 270.972 982.585 270.747C982.92 270.521 983.185 270.205 983.339 269.831C983.494 269.458 983.533 269.045 983.455 268.645C983.378 268.252 983.178 267.885 982.894 267.601Z" fill="black"/>
</svg>
