<svg width="1631" height="675" viewBox="0 0 1631 675" fill="none" xmlns="http://www.w3.org/2000/svg">
<rect width="1631" height="675" fill="white"/>
<path d="M676.754 142.231C713.861 105.948 763.822 85.7433 815.781 86.002C867.739 86.2671 917.494 106.976 954.237 143.628C990.974 180.285 1011.73 229.924 1012 281.761C1012.26 333.598 992.005 383.443 955.637 420.463L851.403 524.454C842.068 533.767 829.401 539 816.196 539C802.99 539 790.323 533.767 780.988 524.454L676.754 420.463C639.77 383.566 619 333.527 619 281.347C619 229.167 639.77 179.128 676.754 142.231Z" stroke="black" stroke-width="20" stroke-linejoin="round"/>
<path d="M816.5 356C857.645 356 891 322.646 891 281.496C891 240.353 857.645 207 816.5 207C775.355 207 742 240.353 742 281.496C742 322.646 775.355 356 816.5 356Z" stroke="black" stroke-width="20" stroke-linecap="round" stroke-linejoin="round"/>
</svg>
