<svg width="1631" height="675" viewBox="0 0 1631 675" fill="none" xmlns="http://www.w3.org/2000/svg">
<rect width="1631" height="675" fill="white"/>
<path d="M1022.19 228.797C986.056 250.5 963.74 287.699 963.74 329.034C963.74 375.532 992.431 417.9 1036 435.467C1027.5 462.333 1014.75 487.134 998.807 509.864C975.429 541.899 950.988 574.967 914.858 574.967C878.728 574.967 868.101 554.303 825.595 554.303C784.152 554.303 769.275 576 735.27 576C701.265 576 677.887 546.035 651.321 508.831C616.253 457.164 596.063 397.235 595 334.197C595 231.901 663.01 177.136 731.019 177.136C767.149 177.136 796.904 199.866 819.219 199.866C840.472 199.866 874.477 176.098 914.858 176.098C957.364 175.065 997.745 194.702 1022.19 228.797ZM895.73 132.702C913.795 112.032 923.359 86.1988 924.422 59.3324C924.422 56.2343 924.422 52.0981 923.359 49C892.542 52.0981 863.851 66.5667 843.66 89.3023C825.595 108.934 814.969 133.735 813.906 160.602C813.906 163.7 813.906 166.798 814.969 169.901C817.094 169.901 820.282 170.934 822.407 170.934C851.099 168.869 877.665 154.4 895.73 132.702Z" fill="black"/>
</svg>
