<svg width="1631" height="675" viewBox="0 0 1631 675" fill="none" xmlns="http://www.w3.org/2000/svg">
<rect width="1631" height="675" fill="white"/>
<path d="M321.831 221.678C326.845 206.107 348.928 206.107 353.941 221.678L367.631 263.686C369.884 270.649 376.362 275.364 383.685 275.364H427.851C444.244 275.364 451.004 296.314 437.765 305.936L402.05 331.9C396.135 336.204 393.657 343.831 395.91 350.794L409.542 392.802C414.612 408.373 396.811 421.318 383.573 411.696L347.801 385.732C341.886 381.428 333.887 381.428 327.972 385.732L292.2 411.696C278.962 421.318 261.16 408.373 266.23 392.802L279.863 350.794C282.116 343.831 279.637 336.204 273.722 331.9L238.007 305.936C224.769 296.314 231.529 275.364 247.922 275.364H292.087C299.411 275.364 305.889 270.649 308.142 263.686L321.831 221.678Z" fill="#FFCE0A"/>
<path d="M560.685 221.678C565.755 206.107 587.782 206.107 592.795 221.678L606.485 263.686C608.738 270.649 615.216 275.364 622.539 275.364H666.705C683.098 275.364 689.858 296.314 676.619 305.936L640.904 331.9C634.989 336.204 632.51 343.831 634.763 350.794L648.396 392.802C653.466 408.373 635.665 421.318 622.427 411.696L586.655 385.732C580.74 381.428 572.741 381.428 566.826 385.732L531.054 411.696C517.816 421.318 500.014 408.373 505.084 392.802L518.717 350.794C520.97 343.831 518.491 336.204 512.576 331.9L476.861 305.936C463.623 296.314 470.383 275.364 486.776 275.364H530.941C538.265 275.364 544.743 270.649 546.996 263.686L560.685 221.678Z" fill="#FFCE0A"/>
<path d="M799.539 221.678C804.552 206.107 826.636 206.107 831.649 221.678L845.338 263.686C847.591 270.649 854.07 275.364 861.393 275.364H905.559C921.952 275.364 928.712 296.314 915.473 305.936L879.758 331.9C873.843 336.204 871.364 343.831 873.617 350.794L887.25 392.802C892.32 408.373 874.519 421.318 861.281 411.696L825.509 385.732C819.594 381.428 811.595 381.428 805.68 385.732L769.907 411.696C756.669 421.318 738.868 408.373 743.938 392.802L757.571 350.794C759.824 343.831 757.345 336.204 751.43 331.9L715.715 305.936C702.476 296.314 709.236 275.364 725.629 275.364H769.795C777.119 275.364 783.597 270.649 785.85 263.686L799.539 221.678Z" fill="#FFCE0A"/>
<path d="M1038.39 221.678C1043.41 206.107 1065.49 206.107 1070.5 221.678L1084.19 263.686C1086.45 270.649 1092.92 275.364 1100.25 275.364H1144.41C1160.81 275.364 1167.57 296.314 1154.33 305.936L1118.61 331.9C1112.7 336.204 1110.22 343.831 1112.47 350.794L1126.1 392.802C1131.17 408.373 1113.37 421.318 1100.13 411.696L1064.36 385.732C1058.45 381.428 1050.45 381.428 1044.53 385.732L1008.76 411.696C995.523 421.318 977.722 408.373 982.792 392.802L996.425 350.794C998.678 343.831 996.2 336.204 990.285 331.9L954.569 305.936C941.33 296.314 948.09 275.364 964.483 275.364H1008.65C1015.97 275.364 1022.45 270.649 1024.7 263.686L1038.39 221.678Z" fill="#999999" fill-opacity="0.49"/>
<path d="M1277.25 221.678C1282.26 206.107 1304.29 206.107 1309.36 221.678L1323.05 263.686C1325.3 270.649 1331.78 275.364 1339.1 275.364H1383.27C1399.66 275.364 1406.42 296.314 1393.18 305.936L1357.47 331.9C1351.55 336.204 1349.07 343.831 1351.33 350.794L1364.96 392.802C1370.03 408.373 1352.23 421.318 1338.99 411.696L1303.22 385.732C1297.3 381.428 1289.3 381.428 1283.39 385.732L1247.62 411.696C1234.38 421.318 1216.58 408.373 1221.65 392.802L1235.28 350.794C1237.53 343.831 1235.05 336.204 1229.14 331.9L1193.42 305.936C1180.18 296.314 1186.94 275.364 1203.34 275.364H1247.5C1254.83 275.364 1261.3 270.649 1263.56 263.686L1277.25 221.678Z" fill="#999999" fill-opacity="0.49"/>
</svg>
