<svg width="1631" height="675" viewBox="0 0 1631 675" fill="none" xmlns="http://www.w3.org/2000/svg">
<rect width="1631" height="675" fill="white"/>
<path d="M1021 233.626V386.349C1021.01 398.383 1018.73 410.306 1014.31 421.426C1009.88 432.546 1003.4 442.652 995.22 451.162C987.046 459.671 977.335 466.424 966.649 471.03C955.963 475.636 944.508 478.001 932.94 478.001H874.227L825.795 528.387C824.476 529.845 822.885 531.005 821.115 531.8C819.351 532.589 817.449 533 815.52 533C813.597 533 811.695 532.589 809.925 531.8C808.162 531.005 806.571 529.845 805.245 528.387L756.82 478.001H698.06C686.492 478.001 675.044 475.629 664.358 471.023C653.672 466.417 643.961 459.664 635.787 451.155C627.607 442.646 621.124 432.539 616.695 421.419C612.274 410.299 610 398.383 610 386.349V233.626C610 209.325 619.281 186.024 635.794 168.84C652.306 151.656 674.706 142 698.06 142H932.92C956.274 142 978.674 151.656 995.187 168.84C1011.7 186.024 1021 209.325 1021 233.626Z" stroke="black" stroke-width="20" stroke-linecap="round" stroke-linejoin="round"/>
</svg>
