<svg width="1631" height="675" viewBox="0 0 1631 675" fill="none" xmlns="http://www.w3.org/2000/svg">
<rect width="1631" height="675" fill="white"/>
<path fill-rule="evenodd" clip-rule="evenodd" d="M781.376 114.759C792.243 109.645 804.054 107 816 107C827.946 107 839.757 109.645 850.624 114.759C928.975 151.646 987.343 204.413 1015.45 232.881C1030.6 248.229 1038.7 268.683 1039.84 289.797C1041.23 315.805 1043 357.99 1043 405.565C1043 439.14 1042.12 470.013 1041.11 494.41C1040.38 513.162 1032.76 530.921 1019.79 544.12C1006.82 557.312 989.464 564.964 971.226 565.518C936.14 566.766 883.986 568 816 568C748.014 568 695.86 566.752 660.774 565.518C642.536 564.964 625.178 557.312 612.211 544.12C599.243 530.921 591.625 513.162 590.887 494.41C589.653 464.814 589.021 435.189 589 405.565C589 357.99 590.766 315.805 592.157 289.797C593.299 268.683 601.4 248.229 616.552 232.881C644.657 204.413 703.032 151.646 781.376 114.759ZM735.287 459.069C729.939 459.069 724.803 461.254 721.022 465.147C717.234 469.034 715.113 474.311 715.113 479.814C715.113 485.318 717.234 490.595 721.022 494.488C724.803 498.382 729.939 500.566 735.287 500.566H896.713C902.061 500.566 907.197 498.382 910.978 494.488C914.766 490.595 916.887 485.318 916.887 479.814C916.887 474.311 914.766 469.034 910.978 465.147C907.197 461.254 902.061 459.069 896.713 459.069H735.287Z" fill="black"/>
</svg>
