<svg width="26" height="26" viewBox="0 0 26 26" fill="none" xmlns="http://www.w3.org/2000/svg">
<circle cx="12.9358" cy="12.9358" r="12.3968" stroke="white" stroke-width="1.07798"/>
<path d="M16.9379 15.7433L18.0722 8.10659L10.3974 7.26792C10.3191 7.24862 10.2367 7.24639 10.1559 7.26137C10.0751 7.27636 9.99783 7.30821 9.92922 7.35477C9.8606 7.40134 9.80229 7.46153 9.75823 7.53127C9.71416 7.60101 9.68538 7.67867 9.67382 7.759C9.66226 7.83932 9.6682 7.92044 9.69123 7.99685C9.71427 8.07326 9.75386 8.14319 9.80732 8.20189C9.86079 8.2606 9.92688 8.30671 10.0011 8.33711C10.0754 8.36752 10.1561 8.38149 10.2377 8.3781L15.9875 9.01549L7.21959 15.7817C7.09803 15.8755 7.01712 16.0117 6.99465 16.1603C6.97219 16.3089 7.01001 16.4577 7.09979 16.5741C7.18958 16.6904 7.32397 16.7647 7.47341 16.7807C7.62286 16.7966 7.7751 16.7529 7.89666 16.6591L16.6645 9.89286L15.8235 15.6164C15.8016 15.7651 15.8399 15.9139 15.9302 16.03C16.0205 16.1461 16.1552 16.2199 16.3048 16.2354C16.4544 16.2508 16.6066 16.2065 16.7279 16.1122C16.8492 16.018 16.9297 15.8814 16.9517 15.7327L16.9379 15.7433Z" fill="white"/>
</svg>
